<?xml version="1.0" encoding="UTF-8" standalone="no"?>
<!DOCTYPE svg PUBLIC "-//W3C//DTD SVG 1.1//EN" "http://www.w3.org/Graphics/SVG/1.1/DTD/svg11.dtd">
<svg width="100%" height="100%" viewBox="0 0 512 512" version="1.1" xmlns="http://www.w3.org/2000/svg" xmlns:xlink="http://www.w3.org/1999/xlink" xml:space="preserve" xmlns:serif="http://www.serif.com/" style="fill-rule:evenodd;clip-rule:evenodd;stroke-linejoin:round;stroke-miterlimit:2;">
    <path d="M115.69,360.634L115.69,155.753L183.638,84.099L333.217,84.099L404.153,151.366L404.153,356.247L323.809,440.974L200.412,440.974L115.69,360.634Z" style="fill:rgb(220,158,48);"/>
    <g>
        <path d="M330.531,347.291L323.809,440.974L404.153,356.247L330.531,347.291Z" style="fill:url(#_Linear1);"/>
        <path d="M189.331,164.443L189.331,342.931L330.531,347.291L330.512,160.083L189.331,164.443Z" style="fill:url(#_Linear2);"/>
        <path d="M115.69,155.753L189.331,164.443L189.331,342.931L115.69,360.634L115.69,155.753Z" style="fill:url(#_Linear3);"/>
        <path d="M330.512,160.083L404.153,151.366L404.153,356.247L330.531,347.291L330.512,160.083Z" style="fill:url(#_Linear4);"/>
        <path d="M189.331,342.931L200.412,440.974L323.809,440.974L330.512,347.29L189.331,342.931Z" style="fill:url(#_Linear5);"/>
        <path d="M115.69,360.634L189.331,342.931L200.412,440.974L115.69,360.634Z" style="fill:url(#_Linear6);"/>
        <path d="M115.69,155.753L189.331,164.443L183.638,84.099L115.69,155.753Z" style="fill:url(#_Linear7);"/>
        <path d="M183.638,84.099L333.217,84.099L330.512,160.083L189.331,164.443L183.638,84.099Z" style="fill:url(#_Linear8);"/>
    </g>
    <g>
        <path d="M333.217,84.099C333.217,84.099 333.096,90.724 332.89,100.065C332.843,102.217 332.79,104.513 332.729,106.906C332.654,109.832 332.572,112.902 332.477,116.027C332.416,118.038 332.349,120.073 332.276,122.107C332.221,123.63 332.161,125.152 332.098,126.665C331.946,130.313 331.782,133.904 331.626,137.3C331.477,140.558 331.329,143.636 331.194,146.415C330.799,154.527 330.512,160.085 330.512,160.085C330.512,160.085 330.622,154.521 330.805,146.401C330.867,143.619 330.939,140.539 331.021,137.279C331.107,133.88 331.199,130.287 331.307,126.637C331.351,125.124 331.4,123.6 331.453,122.077C331.525,120.043 331.603,118.009 331.685,115.999C331.812,112.874 331.949,109.807 332.082,106.883C332.191,104.492 332.302,102.198 332.407,100.047C332.866,90.716 333.217,84.099 333.217,84.099Z" style="fill:white;"/>
        <path d="M404.153,151.366C404.153,151.366 397.75,152.24 388.717,153.437C386.635,153.713 384.414,154.005 382.099,154.303C379.268,154.668 376.297,155.047 373.271,155.422C371.323,155.663 369.353,155.902 367.381,156.134C365.905,156.308 364.428,156.477 362.961,156.642C359.422,157.038 355.937,157.415 352.64,157.77C349.478,158.111 346.489,158.426 343.791,158.709C335.913,159.535 330.512,160.085 330.512,160.085C330.512,160.085 335.892,159.359 343.745,158.323C346.435,157.968 349.415,157.576 352.569,157.169C355.858,156.744 359.334,156.297 362.868,155.856C364.333,155.673 365.808,155.493 367.284,155.317C369.256,155.083 371.228,154.855 373.177,154.635C376.208,154.292 379.185,153.967 382.023,153.661C384.344,153.41 386.572,153.175 388.66,152.957C397.723,152.011 404.153,151.366 404.153,151.366Z" style="fill:white;"/>
        <g transform="matrix(-1,0,0,1,519.843,4.35745)">
            <path d="M336.205,79.741C336.205,79.741 335.594,86.734 334.768,96.596C334.578,98.869 334.378,101.294 334.175,103.822C333.926,106.912 333.669,110.155 333.419,113.458C333.258,115.583 333.1,117.733 332.948,119.884C332.835,121.495 332.727,123.105 332.622,124.706C332.371,128.566 332.138,132.366 331.918,135.961C331.707,139.409 331.515,142.667 331.343,145.61C330.84,154.199 330.512,160.085 330.512,160.085C330.512,160.085 331.018,154.211 331.731,145.637C331.976,142.7 332.245,139.447 332.522,136.004C332.812,132.414 333.116,128.619 333.412,124.762C333.534,123.163 333.654,121.553 333.769,119.942C333.922,117.792 334.069,115.641 334.209,113.514C334.427,110.208 334.63,106.962 334.82,103.867C334.975,101.337 335.119,98.908 335.251,96.631C335.824,86.75 336.205,79.741 336.205,79.741Z" style="fill:white;"/>
        </g>
        <g transform="matrix(-1,0,0,1,519.843,4.35745)">
            <path d="M404.153,151.366C404.153,151.366 397.723,152.011 388.66,152.957C386.572,153.175 384.344,153.41 382.023,153.661C379.185,153.967 376.208,154.292 373.177,154.635C371.228,154.855 369.256,155.083 367.284,155.317C365.808,155.493 364.333,155.673 362.868,155.856C359.334,156.297 355.858,156.744 352.569,157.169C349.415,157.576 346.435,157.968 343.745,158.323C335.892,159.359 330.512,160.085 330.512,160.085C330.512,160.085 335.913,159.535 343.791,158.709C346.489,158.426 349.478,158.111 352.64,157.77C355.937,157.415 359.422,157.038 362.961,156.642C364.428,156.477 365.905,156.308 367.381,156.134C369.353,155.902 371.323,155.663 373.271,155.422C376.297,155.047 379.268,154.668 382.099,154.303C384.414,154.005 386.635,153.713 388.717,153.437C397.75,152.24 404.153,151.366 404.153,151.366Z" style="fill:white;"/>
        </g>
        <g transform="matrix(1,0,0,-1,0,507.374)">
            <path d="M323.809,66.4C323.809,66.4 324.278,74.572 324.975,86.092C325.136,88.746 325.31,91.578 325.497,94.529C325.726,98.137 325.97,101.922 326.229,105.776C326.396,108.256 326.57,110.764 326.75,113.272C326.885,115.15 327.025,117.027 327.168,118.892C327.512,123.389 327.865,127.815 328.199,132.001C328.52,136.017 328.83,139.811 329.112,143.236C329.933,153.234 330.512,160.085 330.512,160.085C330.512,160.085 330.11,153.222 329.5,143.208C329.291,139.778 329.057,135.978 328.803,131.958C328.538,127.767 328.257,123.336 327.957,118.836C327.833,116.969 327.705,115.091 327.571,113.214C327.393,110.706 327.207,108.198 327.02,105.72C326.727,101.868 326.43,98.087 326.142,94.483C325.908,91.535 325.677,88.708 325.458,86.057C324.508,74.556 323.809,66.4 323.809,66.4Z" style="fill:white;"/>
        </g>
        <g transform="matrix(1,0,0,-1,0,507.374)">
            <path d="M404.153,151.366C404.153,151.366 397.723,152.011 388.66,152.957C386.572,153.175 384.344,153.41 382.023,153.661C379.185,153.967 376.208,154.292 373.177,154.635C371.228,154.855 369.256,155.083 367.284,155.317C365.808,155.493 364.333,155.673 362.868,155.856C359.334,156.297 355.858,156.744 352.569,157.169C349.415,157.576 346.435,157.968 343.745,158.323C335.892,159.359 330.512,160.085 330.512,160.085C330.512,160.085 335.913,159.535 343.791,158.709C346.489,158.426 349.478,158.111 352.64,157.77C355.937,157.415 359.422,157.038 362.961,156.642C364.428,156.477 365.905,156.308 367.381,156.134C369.353,155.902 371.323,155.663 373.271,155.422C376.297,155.047 379.268,154.668 382.099,154.303C384.414,154.005 386.635,153.713 388.717,153.437C397.75,152.24 404.153,151.366 404.153,151.366Z" style="fill:white;"/>
        </g>
        <g transform="matrix(-1,0,0,-1,519.843,503.017)">
            <path d="M319.431,62.043C319.431,62.043 320.512,70.574 321.999,82.605C322.341,85.378 322.705,88.336 323.077,91.419C323.532,95.19 324.007,99.146 324.479,103.176C324.783,105.769 325.085,108.393 325.381,111.018C325.602,112.983 325.818,114.949 326.03,116.902C326.54,121.613 327.028,126.251 327.489,130.639C327.931,134.847 328.342,138.825 328.711,142.416C329.789,152.899 330.512,160.085 330.512,160.085C330.512,160.085 329.613,152.919 328.324,142.46C327.883,138.876 327.396,134.907 326.887,130.707C326.357,126.327 325.798,121.697 325.244,116.991C325.014,115.04 324.786,113.075 324.563,111.11C324.265,108.486 323.974,105.861 323.692,103.265C323.252,99.231 322.832,95.269 322.434,91.492C322.109,88.403 321.803,85.438 321.518,82.659C320.282,70.599 319.431,62.043 319.431,62.043Z" style="fill:white;"/>
        </g>
        <g transform="matrix(-1,0,0,-1,519.843,503.017)">
            <path d="M404.153,142.383C404.153,142.383 397.763,144.037 388.745,146.335C386.667,146.865 384.449,147.427 382.137,148.008C379.309,148.718 376.341,149.459 373.317,150.203C371.37,150.682 369.4,151.161 367.429,151.634C365.953,151.988 364.475,152.337 363.007,152.681C359.465,153.509 355.976,154.311 352.675,155.069C349.509,155.796 346.516,156.476 343.813,157.088C335.923,158.876 330.512,160.085 330.512,160.085C330.512,160.085 335.881,158.703 343.722,156.71C346.408,156.027 349.384,155.272 352.534,154.48C355.818,153.655 359.291,152.783 362.822,151.911C364.286,151.55 365.761,151.189 367.237,150.834C369.208,150.359 371.18,149.891 373.131,149.432C376.164,148.72 379.144,148.032 381.985,147.379C384.309,146.845 386.54,146.338 388.632,145.865C397.71,143.813 404.153,142.383 404.153,142.383Z" style="fill:white;"/>
        </g>
    </g>
    <path d="M404.153,151.366L333.217,84.099L330.44,160.085L404.153,151.366Z" style="fill:url(#_Linear9);"/>
    <defs>
        <linearGradient id="_Linear1" x1="0" y1="0" x2="1" y2="0" gradientUnits="userSpaceOnUse" gradientTransform="matrix(-161.358,-55.1489,64.3045,-188.146,470.873,422.728)"><stop offset="0" style="stop-color:white;stop-opacity:1"/><stop offset="1" style="stop-color:white;stop-opacity:0"/></linearGradient>
        <linearGradient id="_Linear2" x1="0" y1="0" x2="1" y2="0" gradientUnits="userSpaceOnUse" gradientTransform="matrix(158.655,252.732,-335.08,210.35,178.873,128.193)"><stop offset="0" style="stop-color:white;stop-opacity:1"/><stop offset="1" style="stop-color:white;stop-opacity:0"/></linearGradient>
        <linearGradient id="_Linear3" x1="0" y1="0" x2="1" y2="0" gradientUnits="userSpaceOnUse" gradientTransform="matrix(129.416,5.22894,-13.9099,344.269,59.9149,248.473)"><stop offset="0" style="stop-color:white;stop-opacity:1"/><stop offset="1" style="stop-color:white;stop-opacity:0"/></linearGradient>
        <linearGradient id="_Linear4" x1="0" y1="0" x2="1" y2="0" gradientUnits="userSpaceOnUse" gradientTransform="matrix(-243.146,-189.784,528.009,-676.47,521.369,405.245)"><stop offset="0" style="stop-color:white;stop-opacity:1"/><stop offset="1" style="stop-color:white;stop-opacity:0"/></linearGradient>
        <linearGradient id="_Linear5" x1="0" y1="0" x2="1" y2="0" gradientUnits="userSpaceOnUse" gradientTransform="matrix(-40.3431,-288.038,288.038,-40.3431,288.527,612.422)"><stop offset="0" style="stop-color:white;stop-opacity:1"/><stop offset="1" style="stop-color:white;stop-opacity:0"/></linearGradient>
        <linearGradient id="_Linear6" x1="0" y1="0" x2="1" y2="0" gradientUnits="userSpaceOnUse" gradientTransform="matrix(168.509,-61.0347,70.6311,195.003,26.3626,430.764)"><stop offset="0" style="stop-color:white;stop-opacity:1"/><stop offset="1" style="stop-color:white;stop-opacity:0"/></linearGradient>
        <linearGradient id="_Linear7" x1="0" y1="0" x2="1" y2="0" gradientUnits="userSpaceOnUse" gradientTransform="matrix(154.26,167.993,-183.285,168.302,52.943,19.2564)"><stop offset="0" style="stop-color:white;stop-opacity:1"/><stop offset="1" style="stop-color:white;stop-opacity:0"/></linearGradient>
        <linearGradient id="_Linear8" x1="0" y1="0" x2="1" y2="0" gradientUnits="userSpaceOnUse" gradientTransform="matrix(232.805,94.9923,-51.024,125.049,100.411,29.2785)"><stop offset="0" style="stop-color:white;stop-opacity:1"/><stop offset="1" style="stop-color:white;stop-opacity:0"/></linearGradient>
        <linearGradient id="_Linear9" x1="0" y1="0" x2="1" y2="0" gradientUnits="userSpaceOnUse" gradientTransform="matrix(-97.0981,54.8247,-56.5153,-100.092,413.667,79.0325)"><stop offset="0" style="stop-color:white;stop-opacity:1"/><stop offset="1" style="stop-color:white;stop-opacity:0"/></linearGradient>
    </defs>
</svg>
